<svg width="101" height="72" viewBox="0 0 101 72" fill="none" xmlns="http://www.w3.org/2000/svg">
<g clip-path="url(#clip0_105_841)">
<path d="M109.65 -2.51999H109.64C109.64 -2.58999 109.65 -2.65999 109.65 -2.72999C109.65 -12.28 101.91 -20.03 92.35 -20.03C91.12 -20.03 89.92 -19.9 88.77 -19.65C85.34 -27.99 77.15 -33.87 67.57 -33.87C60.38 -33.87 53.97 -30.55 49.77 -25.37C46.9817 -26.788 43.8981 -27.528 40.77 -27.53C30.42 -27.53 21.92 -19.65 20.93 -9.56C9.68003 -8.96 0.650028 0.260009 0.500028 11.71C0.340028 23.63 9.89003 33.43 21.81 33.58C22.74 33.59 23.64 33.53 24.54 33.42C29.15 43.14 39.04 49.86 50.51 49.86C57.43 49.86 63.77 47.41 68.73 43.34C72.52 46.15 77.2 47.83 82.28 47.83C92.7 47.83 101.47 40.84 104.2 31.29C105.92 31.86 107.75 32.18 109.66 32.18C119.24 32.18 127.01 24.41 127.01 14.83C127 5.25001 119.24 -2.51999 109.65 -2.51999Z" fill="#E3EBEE"/>
<path d="M119.85 0.790039C123.78 4.76004 121 13.8601 118.3 16.8301C112.98 22.6601 103.22 21.3001 99.2999 20.4601C98.2399 20.2301 98.0699 20.3101 97.7199 20.5201C97.4099 20.7101 97.2699 21.0101 96.9299 21.7201C95.6699 24.4401 92.4099 29.7101 85.5299 31.8301C78.3599 34.0401 71.5999 30.6701 68.4399 28.6601C67.2399 27.9001 67.1899 27.8801 66.6499 27.8901C66.0999 27.9001 65.5599 28.3001 64.9099 28.8101C62.0499 31.0601 55.5199 35.0301 45.4499 34.4501C35.5799 33.8801 29.9299 27.8001 27.9899 24.6701C27.6199 24.0701 27.2199 23.5701 26.7599 23.5201C26.2299 23.4701 25.6399 24.0101 25.1999 24.4501C20.9999 28.5401 7.7799 29.7701 3.3999 22.8001C7.8599 29.9501 14.7499 33.4901 21.8199 33.5801C22.7499 33.5901 23.6499 33.5301 24.5499 33.4201C29.1599 43.1401 39.0499 49.8601 50.5199 49.8601C57.4399 49.8601 63.7799 47.4101 68.7399 43.3401C72.5299 46.1501 77.2099 47.8301 82.2899 47.8301C92.7099 47.8301 101.48 40.8401 104.21 31.2901C105.93 31.8601 107.76 32.1801 109.67 32.1801C119.25 32.1801 127.02 24.4101 127.02 14.8301C127 9.73004 124.44 3.97004 119.85 0.790039Z" fill="#B9CDD2"/>
</g>
<defs>
<clipPath id="clip0_105_841">
<rect width="101" height="72" fill="white"/>
</clipPath>
</defs>
</svg>
